<?xml version="1.0" standalone="no"?><!DOCTYPE svg PUBLIC "-//W3C//DTD SVG 1.1//EN" "http://www.w3.org/Graphics/SVG/1.1/DTD/svg11.dtd"><svg t="1502116022917" class="icon" style="" viewBox="0 0 1056 1024" version="1.1" xmlns="http://www.w3.org/2000/svg" p-id="7258" xmlns:xlink="http://www.w3.org/1999/xlink" width="206.25" height="200"><defs><style type="text/css"></style></defs><path d="M27.404477 62.775896L782.370444 0s350.223419 525.251401 104.858352 878.907625l-702.540011 41.850597S419.56866 627.527099 27.404477 62.775896z" fill="#F2B235" p-id="7259"></path><path d="M69.351682 80.848037l702.192222-59.922738s325.742945 501.376337 97.529024 838.956985l-653.430931 39.950639S434.098507 619.933708 69.351682 80.848037z" fill="#FFFFFF" p-id="7260"></path><path d="M193.505878 297.372387s640.150548 320.6356 673.448114-101.509274c0 0 176.470662 379.714629-0.283384 665.442529l-651.337757 33.838572s143.739863-260.93828-21.826973-597.771827z" fill="#FFEECC" p-id="7261"></path><path d="M299.916399 337.645054l491.889429-44.64579 0.528124 21.337493-477.81686 44.29156-14.600693-20.983263zM352.013887 470.944809l492.552805-43.518696 0.528123 20.802929-478.454472 43.164466-14.626456-20.448699zM373.299856 611.142377l492.224337-43.293277 0.528124 20.69344-478.132446 42.945488-14.620015-20.345651zM373.100199 753.813111l493.035845-32.13827 0.083727 20.596831-478.950394 32.099627-14.169178-20.558188z" fill="#F2B235" p-id="7262"></path><path d="M773.231325 470.84176s80.893121 13.454278 115.343543 62.782337c0 0 73.396338-122.569824 167.769499-167.41527 0 0-113.842899 29.896964-167.769499 125.558232 0 0-88.190247-102.481795-115.343543-20.925299zM773.231325 701.032926s80.893121 13.454278 115.343543 62.782336c0 0 73.396338-122.569824 167.769499-167.41527 0 0-113.842899 29.896964-167.769499 125.558233 0 0-88.190247-102.481795-115.343543-20.925299zM737.280258 127.851063s165.399382 65.944639 224.690948 183.355594c0 0-171.63382-160.839483-262.13622-144.751027l37.445272-38.604567z" fill="#F62F2F" p-id="7263"></path><path d="M895.975043 104.555647s-140.963992 110.918896-166.101401 240.721441c0 0 121.255955-203.830055 212.511897-214.431177l-46.410496-26.290264zM319.19292 130.858793s-129.98932-41.857038-111.492103 35.165321c18.497217 77.015919 97.72868 8.881498 114.119842-14.336631 0 0-53.166617 32.795205-69.995736 29.948488-16.822678-2.846717-49.147723-42.423805 3.806356-53.372714 0 0 31.255917-5.165309 63.561641 2.595536z m0 0s7.451699 147.829603 23.643205 187.445334c0 0-26.902115-20.088029-28.628179-59.871215-1.726063-39.789626 6.672394-120.702069 4.984974-127.574119zM337.451838 108.065739s49.179926 2.395879 93.632499-11.760417l1.307429 10.382142s-59.787487 138.671162-49.250772 196.011246c0 0-7.876774 5.603266-11.708893-9.074714-3.838559-14.67798-23.95235-58.950218 51.865629-175.246961 0 0-106.494248 37.103923-85.845892-10.311296z" fill="#F62F2F" p-id="7264"></path><path d="M2.363676 410.088193l333.239728 525.393092 121.391206 88.518715-31.378287-151.945105-334.212249-517.271577S19.701597 341.638185 2.363676 410.088193z" fill="#E97006" p-id="7265"></path><path d="M34.888379 413.946073s17.659947-32.898253 44.516978-27.649217l320.848138 490.981313 21.891379 93.175222-75.508833-58.37057L34.888379 413.946073z" fill="#FABE7E" p-id="7266"></path><path d="M226.777682 741.4022s4.424648-37.116804 63.684011-50.081601L143.881555 468.059449s-62.028794-13.248181-62.711491 41.960086L226.777682 741.4022z" fill="#E97006" p-id="7267"></path><path d="M104.858352 506.812149l79.031807 129.50628 9.474027-7.451699-79.031807-129.512721-9.474027 7.45814zM190.337134 654.248879l9.480468-7.45814 15.921003 10.47231-18.948054 14.909839-6.453417-17.924009z" fill="#FFFFFF" p-id="7268"></path><path d="M31.983697 438.304177L4.69515 459.77048s-12.861749 9.061833 4.263634 33.445699c17.118942 24.383866 98.359852 143.424277 98.359853 143.424277s35.62904 37.168328 20.133112-30.547458c0 0-10.259772 7.020183-24.396747-2.898241L18.05282 486.060745s-14.600693-15.850157 20.133113-30.547458l-6.202236-17.20911zM337.535564 919.238256s11.734655-55.221148 70.852327-40.994006c0 0-46.809809 0.875913-70.852327 40.994006z" fill="#E97006" p-id="7269"></path></svg>