<?xml version="1.0" standalone="no"?><!DOCTYPE svg PUBLIC "-//W3C//DTD SVG 1.1//EN" "http://www.w3.org/Graphics/SVG/1.1/DTD/svg11.dtd"><svg t="1502285462447" class="icon" style="" viewBox="0 0 1024 1024" version="1.1" xmlns="http://www.w3.org/2000/svg" p-id="3097" xmlns:xlink="http://www.w3.org/1999/xlink" width="200" height="200"><defs><style type="text/css"></style></defs><path d="M793.84576 426.346496c12.189696-12.178432 18.66752-27.247616 19.40992-45.16352 0.631808-18.060288-5.10464-33.10592-17.417216-45.308928-12.19072-12.203008-27.260928-18.157568-44.93312-17.793024-17.672192 0.36352-32.730112 6.587392-44.919808 18.7904L417.865728 623.750144l-99.2-97.718272c-12.189696-12.178432-27.247616-18.400256-44.919808-18.7904-17.672192-0.36352-32.730112 5.615616-44.920832 17.794048-12.32384 12.201984-18.546688 26.641408-18.922496 43.194368-0.377856 16.67584 5.602304 31.11424 17.926144 43.317248l142.006272 142.369792c12.189696 12.203008 28.246016 18.183168 48.031744 17.793024 19.664896-0.36352 35.720192-6.587392 47.909888-18.7904l-3.986432 4.108288L793.84576 426.346496zM512.823296 64.3072c61.97248 0 120.091648 11.692032 174.237696 35.099648 54.146048 23.40864 101.424128 55.3728 142.006272 96.089088 40.568832 40.690688 72.557568 88.237056 96.075776 142.369792 23.530496 54.254592 35.221504 112.253952 35.221504 173.995008 0 61.717504-11.692032 119.836672-35.221504 174.358528-23.518208 54.643712-55.506944 102.28736-96.075776 143.0016-40.582144 40.691712-87.860224 72.680448-142.006272 96.064512-54.146048 23.40864-112.26624 35.100672-174.237696 35.100672s-120.213504-11.692032-174.736384-35.100672c-54.509568-23.384064-101.921792-55.371776-142.491648-96.064512-40.582144-40.715264-72.557568-88.357888-96.088064-143.0016C75.977728 631.698432 64.285696 573.57824 64.285696 511.860736c0-61.741056 11.692032-119.740416 35.221504-173.995008 23.530496-54.132736 55.50592-101.679104 96.088064-142.369792 40.569856-40.716288 87.98208-72.680448 142.491648-96.089088C392.609792 75.999232 450.85184 64.3072 512.823296 64.3072" fill="#1afa29" p-id="3098"></path></svg>